<svg width="93" height="41" viewBox="0 0 93 41" fill="none" xmlns="http://www.w3.org/2000/svg">
<path d="M34.682 0.00830078L23.0919 20.0834L28.885 30.119H17.3831L11.5978 20.1011H11.5787L5.79749 30.1151L5.80945 30.1367V30.1467L11.6025 40.1803H11.6146H23.2009L23.189 40.1607H23.2009H34.6951H46.2854H57.8501L63.6454 30.1251L69.46 20.0954L57.8698 0.0203247H34.6892L34.682 0.00830078ZM40.4791 10.0478H52.0519H52.0679L57.8629 20.0854L57.851 20.0992L57.839 20.0816L52.0653 30.1231H40.4752L34.6801 20.0855L40.4791 10.0478Z" fill="#212322"/>
<path d="M11.5684 0.00445557L5.77124 10.046L5.7832 10.0656L0 20.0815L5.79712 30.1152L11.5902 20.0815V20.0775L17.3854 10.04H17.3634L23.1566 0.00439453H11.5702L11.5684 0.00445557Z" fill="#00B140"/>
<path d="M81.049 20.0725L69.4827 40.1471H81.0493L86.8464 30.1077L81.049 20.0725Z" fill="#00B140"/>
<path d="M69.4937 0.00415039L75.2867 10.0398H75.2648L81.0599 20.0773L86.8531 30.113L92.6503 20.0793L86.8669 10.0594L86.877 10.0415L81.0798 0H69.4955L69.4937 0.00415039Z" fill="#212322"/>
</svg>
