<?xml version="1.0" encoding="UTF-8" standalone="no"?>
<svg
   xmlns:dc="http://purl.org/dc/elements/1.1/"
   xmlns:cc="http://creativecommons.org/ns#"
   xmlns:rdf="http://www.w3.org/1999/02/22-rdf-syntax-ns#"
   xmlns:svg="http://www.w3.org/2000/svg"
   xmlns="http://www.w3.org/2000/svg"
   xmlns:sodipodi="http://sodipodi.sourceforge.net/DTD/sodipodi-0.dtd"
   xmlns:inkscape="http://www.inkscape.org/namespaces/inkscape"
   inkscape:version="1.0 (4035a4fb49, 2020-05-01)"
   sodipodi:docname="Ni Logo dah Putih.svg"
   id="svg25"
   version="1.1"
   fill="none"
   viewBox="0 0 198 46"
   height="46"
   width="198">
  <metadata
     id="metadata29">
    <rdf:RDF>
      <cc:Work
         rdf:about="">
        <dc:format>image/svg+xml</dc:format>
        <dc:type
           rdf:resource="http://purl.org/dc/dcmitype/StillImage" />
        <dc:title></dc:title>
      </cc:Work>
    </rdf:RDF>
  </metadata>
  <sodipodi:namedview
     inkscape:current-layer="g18"
     inkscape:window-maximized="1"
     inkscape:window-y="-8"
     inkscape:window-x="-8"
     inkscape:cy="-136.00982"
     inkscape:cx="172.79261"
     inkscape:zoom="0.97584307"
     showgrid="false"
     id="namedview27"
     inkscape:window-height="745"
     inkscape:window-width="1366"
     inkscape:pageshadow="2"
     inkscape:pageopacity="0"
     guidetolerance="10"
     gridtolerance="10"
     objecttolerance="10"
     borderopacity="1"
     bordercolor="#666666"
     pagecolor="#ffffff" />
  <g
     id="g18"
     clip-path="url(#clip0)">
    <path
       style="fill:#ffffff"
       id="path2"
       fill="#212322"
       d="M25.4202 8.26694L16.9253 22.9951L21.1713 30.3577H12.7409L8.50061 23.0081H8.48665L4.24928 30.3549L4.25805 30.3707V30.3781L8.5041 37.7392H8.51296H17.0051L16.9964 37.7248H17.0051H25.4298H33.9249H42.4013L46.6489 30.3622L50.9107 23.0039L42.4157 8.27576H25.4255L25.4202 8.26694ZM29.6692 15.6324H38.1515H38.1632L42.4107 22.9965L42.4019 23.0067L42.3931 22.9938L38.1613 30.3607H29.6664L25.4188 22.9966L29.6692 15.6324Z" />
    <path
       style="fill:#ffffff"
       id="path4"
       fill="#00B140"
       d="M8.47906 8.26426L4.23005 15.6312L4.23882 15.6456L1.52588e-05 22.9938L4.24902 30.3551L8.49507 22.9938V22.9909L12.7426 15.6268H12.7265L16.9727 8.26421H8.4804L8.47906 8.26426Z" />
    <path
       style="fill:#ffffff"
       id="path6"
       fill="#00B140"
       d="M59.4049 22.9871L50.9274 37.7148H59.4052L63.6542 30.3494L59.4049 22.9871Z" />
    <path
       style="fill:#ffffff"
       id="path8"
       fill="#212322"
       d="M50.9354 8.26383L55.1815 15.6265H55.1654L59.413 22.9905L63.6591 30.3532L67.9081 22.992L63.6692 15.6409L63.6766 15.6278L59.4275 8.26078H50.9368L50.9354 8.26383Z" />
    <path
       style="fill:#ffffff"
       id="path10"
       fill="#212322"
       d="M130.015 10.2223C127.212 10.2223 124.742 10.7558 122.606 11.8248C120.47 12.8604 118.817 14.3475 117.649 16.2851C116.514 18.1893 115.948 20.4277 115.948 23C115.948 25.6392 116.531 27.9278 117.699 29.8654C118.867 31.7696 120.504 33.2387 122.606 34.2743C124.742 35.2765 127.212 35.7778 130.015 35.7778C132.819 35.7778 135.271 35.2765 137.374 34.2743C139.509 33.2387 141.162 31.7696 142.331 29.8654C143.499 27.9278 144.082 25.6392 144.082 23C144.082 20.4277 143.499 18.1893 142.331 16.2851C141.162 14.3475 139.509 12.8604 137.374 11.8248C135.271 10.7558 132.819 10.2223 130.015 10.2223ZM130.015 15.1829C132.351 15.1829 134.187 15.884 135.522 17.287C136.89 18.6567 137.574 20.5613 137.574 23C137.574 25.3051 136.89 27.1918 135.522 28.6616C134.153 30.0982 132.318 30.8172 130.015 30.8172C127.712 30.8172 125.876 30.0982 124.508 28.6616C123.139 27.1918 122.456 25.3051 122.456 23C122.456 20.5613 123.123 18.6567 124.458 17.287C125.826 15.884 127.679 15.1829 130.015 15.1829Z" />
    <path
       style="fill:#ffffff"
       id="path12"
       fill="#212322"
       d="M95.3203 10.2223C92.8837 10.2223 90.6981 10.7558 88.7621 11.8248C86.8597 12.8604 85.3574 14.3475 84.256 16.2851C83.1883 18.1893 82.6537 20.4109 82.6537 22.9499C82.6537 25.4554 83.1883 27.677 84.256 29.6146C85.3574 31.5522 86.8597 33.0716 88.7621 34.174C90.6981 35.243 92.8837 35.7778 95.3203 35.7778C97.1562 35.7778 98.8746 35.5278 100.477 35.0267C102.112 34.4921 103.497 33.7062 104.632 32.6705V46H110.94V10.9734H104.831V13.88C103.53 12.644 102.112 11.7251 100.577 11.1238C99.0413 10.5225 97.2892 10.2223 95.3203 10.2223ZM96.8712 15.1829C98.6734 15.1829 100.276 15.6675 101.678 16.6362C103.08 17.605 104.065 18.9078 104.632 20.5448V25.4051C104.098 27.042 103.113 28.3616 101.678 29.3638C100.276 30.3326 98.6734 30.8172 96.8712 30.8172C94.6019 30.8172 92.7333 30.0813 91.2651 28.6115C89.7969 27.1416 89.0615 25.2549 89.0615 22.9499C89.0615 20.6448 89.7969 18.7737 91.2651 17.3372C92.7333 15.9007 94.6019 15.1829 96.8712 15.1829Z" />
    <path
       style="fill:#ffffff"
       id="path14"
       fill="#212322"
       d="M181.63 10.9733H187.737V14.8318C188.705 13.5289 190.074 12.5602 191.842 11.9254C193.645 11.2907 195.697 10.9733 198 10.9733V15.7839C195.563 15.7839 193.444 16.1681 191.642 16.9364C189.874 17.6714 188.638 18.8406 187.938 20.4441V35.0261H181.63V10.9733Z" />
    <path
       style="fill:#ffffff"
       id="path16"
       fill="#212322"
       d="M160.001 35.7778C157.565 35.7778 155.379 35.2442 153.443 34.1752C151.541 33.1395 150.038 31.6525 148.937 29.7149C147.869 27.8107 147.335 25.5891 147.335 23.0502C147.335 20.5447 147.869 18.323 148.937 16.3854C150.038 14.4478 151.541 12.9284 153.443 11.826C155.379 10.757 157.565 10.2222 160.001 10.2222C161.837 10.2222 163.556 10.4723 165.158 10.9734C166.793 11.5079 168.178 12.2939 169.313 13.3295V-7.62939e-06H175.62V35.0266H169.512V32.12C168.21 33.356 166.793 34.2749 165.258 34.8762C163.722 35.4775 161.97 35.7778 160.001 35.7778ZM161.552 30.8171C163.354 30.8171 164.957 30.3326 166.359 29.3638C167.761 28.395 168.746 27.0922 169.313 25.4552V20.5949C168.779 18.958 167.794 17.6384 166.359 16.6362C164.957 15.6674 163.354 15.1829 161.552 15.1829C159.283 15.1829 157.414 15.9186 155.946 17.3885C154.478 18.8584 153.742 20.7451 153.742 23.0502C153.742 25.3552 154.478 27.2263 155.946 28.6628C157.414 30.0993 159.283 30.8171 161.552 30.8171Z" />
  </g>
  <defs
     id="defs23">
    <clipPath
       id="clip0">
      <rect
         id="rect20"
         fill="white"
         height="46"
         width="198" />
    </clipPath>
  </defs>
</svg>
